<svg xmlns="http://www.w3.org/2000/svg" x="0px" y="0px" width="96" height="96" viewBox="0 0 172 172"
        style=" fill:#000000;">
        <defs>
          <linearGradient x1="94.0625" y1="49.04688" x2="94.0625" y2="120.98856" gradientUnits="userSpaceOnUse"
            id="color-1_48336_gr1">
            <stop offset="0" stop-color="#ffe9e7"></stop>
            <stop offset="1" stop-color="#dd6e96"></stop>
          </linearGradient>
          <linearGradient x1="76.08044" y1="19.48438" x2="76.08044" y2="153.99644" gradientUnits="userSpaceOnUse"
            id="color-2_48336_gr2">
            <stop offset="0" stop-color="#ff8177"></stop>
            <stop offset="1" stop-color="#b12a5b"></stop>
          </linearGradient>
          <linearGradient x1="51.94131" y1="19.48438" x2="51.94131" y2="153.99644" gradientUnits="userSpaceOnUse"
            id="color-3_48336_gr3">
            <stop offset="0" stop-color="#ff8177"></stop>
            <stop offset="1" stop-color="#b12a5b"></stop>
          </linearGradient>
          <linearGradient x1="63.09981" y1="19.48438" x2="63.09981" y2="153.99644" gradientUnits="userSpaceOnUse"
            id="color-4_48336_gr4">
            <stop offset="0" stop-color="#ff8177"></stop>
            <stop offset="1" stop-color="#b12a5b"></stop>
          </linearGradient>
          <linearGradient x1="43.36819" y1="19.48438" x2="43.36819" y2="153.99644" gradientUnits="userSpaceOnUse"
            id="color-5_48336_gr5">
            <stop offset="0" stop-color="#ff8177"></stop>
            <stop offset="1" stop-color="#b12a5b"></stop>
          </linearGradient>
          <linearGradient x1="86" y1="19.48438" x2="86" y2="153.99644" gradientUnits="userSpaceOnUse"
            id="color-6_48336_gr6">
            <stop offset="0" stop-color="#ff8177"></stop>
            <stop offset="1" stop-color="#b12a5b"></stop>
          </linearGradient>
          <linearGradient x1="94.0625" y1="49.04688" x2="94.0625" y2="120.98856" gradientUnits="userSpaceOnUse"
            id="color-7_48336_gr7">
            <stop offset="0" stop-color="#ffe9e7"></stop>
            <stop offset="1" stop-color="#dd6e96"></stop>
          </linearGradient>
          <linearGradient x1="76.08044" y1="19.48438" x2="76.08044" y2="153.99644" gradientUnits="userSpaceOnUse"
            id="color-8_48336_gr8">
            <stop offset="0" stop-color="#ff8177"></stop>
            <stop offset="1" stop-color="#b12a5b"></stop>
          </linearGradient>
          <linearGradient x1="51.94131" y1="19.48438" x2="51.94131" y2="153.99644" gradientUnits="userSpaceOnUse"
            id="color-9_48336_gr9">
            <stop offset="0" stop-color="#ff8177"></stop>
            <stop offset="1" stop-color="#b12a5b"></stop>
          </linearGradient>
          <linearGradient x1="63.09981" y1="19.48438" x2="63.09981" y2="153.99644" gradientUnits="userSpaceOnUse"
            id="color-10_48336_gr10">
            <stop offset="0" stop-color="#ff8177"></stop>
            <stop offset="1" stop-color="#b12a5b"></stop>
          </linearGradient>
          <linearGradient x1="43.36819" y1="19.48438" x2="43.36819" y2="153.99644" gradientUnits="userSpaceOnUse"
            id="color-11_48336_gr11">
            <stop offset="0" stop-color="#ff8177"></stop>
            <stop offset="1" stop-color="#b12a5b"></stop>
          </linearGradient>
          <linearGradient x1="86" y1="19.48438" x2="86" y2="153.99644" gradientUnits="userSpaceOnUse"
            id="color-12_48336_gr12">
            <stop offset="0" stop-color="#ff8177"></stop>
            <stop offset="1" stop-color="#b12a5b"></stop>
          </linearGradient>
          <linearGradient x1="137.0625" y1="102.59343" x2="137.0625" y2="171.39451" gradientUnits="userSpaceOnUse"
            id="color-13_48336_gr13">
            <stop offset="0" stop-color="#1a6dff"></stop>
            <stop offset="1" stop-color="#c822ff"></stop>
          </linearGradient>
          <linearGradient x1="137.0625" y1="102.125" x2="137.0625" y2="172" gradientUnits="userSpaceOnUse"
            id="color-14_48336_gr14">
            <stop offset="0" stop-color="#1a6dff"></stop>
            <stop offset="1" stop-color="#c822ff"></stop>
          </linearGradient>
        </defs>
        <g fill="none" fill-rule="nonzero" stroke="none" stroke-width="1" stroke-linecap="butt" stroke-linejoin="miter"
          stroke-miterlimit="10" stroke-dasharray="" stroke-dashoffset="0" font-family="none" font-weight="none"
          font-size="none" text-anchor="none" style="mix-blend-mode: normal">
          <path d="M0,172v-172h172v172z" fill="none" stroke="none"></path>
          <g id="original-icon" stroke="none" opacity="0" visibility="hidden">
            <path
              d="M112.875,67.1875v-5.375h-16.125v-10.75h-5.375v10.75h-10.75c-2.96431,0 -5.375,2.41069 -5.375,5.375v16.125c0,2.96431 2.41069,5.375 5.375,5.375h26.875v16.125h-32.25v5.375h16.125v10.75h5.375v-10.75h10.75c2.96431,0 5.375,-2.41069 5.375,-5.375v-16.125c0,-2.96431 -2.41069,-5.375 -5.375,-5.375h-26.875v-16.125z"
              fill="url(#color-1_48336_gr1)"></path>
            <path
              d="M71.16769,143.43456c2.77887,1.10994 5.66525,2.021 8.58119,2.71437l1.24162,-5.22987c-2.66062,-0.63156 -5.29438,-1.46469 -7.83406,-2.47519z"
              fill="url(#color-2_48336_gr2)"></path>
            <path
              d="M51.10013,122.60375l-4.08769,3.48838c1.94306,2.27631 4.06887,4.43169 6.31831,6.40431l3.54213,-4.042c-2.05594,-1.80331 -3.999,-3.77056 -5.77275,-5.85069z"
              fill="url(#color-3_48336_gr3)"></path>
            <path
              d="M58.0285,136.22938c2.43487,1.74956 5.01756,3.3325 7.67012,4.70581l2.46981,-4.773c-2.42144,-1.25238 -4.77837,-2.69825 -7.00362,-4.29731z"
              fill="url(#color-4_48336_gr4)"></path>
            <path
              d="M43.77937,111.65488l-4.78644,2.44562c1.27119,2.48863 2.73319,4.92081 4.34031,7.224l4.4075,-3.0745c-1.46737,-2.10431 -2.80037,-4.32419 -3.96138,-6.59512z"
              fill="url(#color-5_48336_gr5)"></path>
            <path
              d="M94.0625,24.1875c-29.96831,0 -55.66619,21.801 -60.81544,51.0625h-11.90831c-1.86244,0 -3.59587,0.9675 -4.52306,2.52088c-0.88688,1.49156 -0.9245,3.29219 -0.09675,4.816l11.34663,20.93563c1.33031,2.45369 3.96406,3.9775 6.87194,3.9775c2.90788,0 5.54162,-1.52381 6.87194,-3.97481l11.34662,-20.93563c0.82775,-1.52381 0.79013,-3.32444 -0.09675,-4.816c-0.92719,-1.55606 -2.66062,-2.52356 -4.52306,-2.52356h-9.82819c5.07669,-26.24344 28.31013,-45.6875 55.35444,-45.6875c31.12125,0 56.4375,25.31625 56.4375,56.4375c0,31.12125 -25.31625,56.4375 -56.4375,56.4375c-2.57194,0 -5.15462,-0.17469 -7.68087,-0.51869l-0.72563,5.32394c2.76544,0.37894 5.59537,0.56975 8.4065,0.56975c34.08288,0 61.8125,-27.72962 61.8125,-61.8125c0,-34.08288 -27.72962,-61.8125 -61.8125,-61.8125zM37.08213,100.96131c-0.58319,1.08038 -1.78988,1.16369 -2.14462,1.16369c-0.35475,0 -1.56144,-0.08331 -2.14462,-1.16369l-11.02413,-20.339l26.41006,-0.13437z"
              fill="url(#color-6_48336_gr6)"></path>
          </g>
          <g id="subtracted-icon" stroke="none">
            <path
              d="M80.625,67.1875v16.125h26.875c2.96431,0 5.375,2.41069 5.375,5.375v16.125c0,0.00637 -0.00001,0.01274 -0.00003,0.01911c-2.11588,1.59186 -4.07063,3.3869 -5.83503,5.35589h-10.28994v10.75h-5.375v-10.75h-16.125v-5.375h32.25v-16.125h-26.875c-2.96431,0 -5.375,-2.41069 -5.375,-5.375v-16.125c0,-2.96431 2.41069,-5.375 5.375,-5.375h10.75v-10.75h5.375v10.75h16.125v5.375z"
              fill="url(#color-7_48336_gr7)"></path>
            <path
              d="M71.16769,143.43456c2.77887,1.10994 5.66525,2.021 8.58119,2.71437l1.24162,-5.22987c-2.66062,-0.63156 -5.29438,-1.46469 -7.83406,-2.47519z"
              fill="url(#color-8_48336_gr8)"></path>
            <path
              d="M51.10013,122.60375l-4.08769,3.48838c1.94306,2.27631 4.06887,4.43169 6.31831,6.40431l3.54213,-4.042c-2.05594,-1.80331 -3.999,-3.77056 -5.77275,-5.85069z"
              fill="url(#color-9_48336_gr9)"></path>
            <path
              d="M58.0285,136.22938c2.43487,1.74956 5.01756,3.3325 7.67012,4.70581l2.46981,-4.773c-2.42144,-1.25238 -4.77837,-2.69825 -7.00362,-4.29731z"
              fill="url(#color-10_48336_gr10)"></path>
            <path
              d="M43.77937,111.65488l-4.78644,2.44562c1.27119,2.48863 2.73319,4.92081 4.34031,7.224l4.4075,-3.0745c-1.46737,-2.10431 -2.80037,-4.32419 -3.96138,-6.59512z"
              fill="url(#color-11_48336_gr11)"></path>
            <path
              d="M155.875,86c0,5.01024 -0.59922,9.88319 -1.72976,14.55094c-1.62987,-0.76564 -3.31901,-1.42527 -5.05848,-1.96996c0.92473,-4.04678 1.41325,-8.25787 1.41325,-12.58098c0,-31.12125 -25.31625,-56.4375 -56.4375,-56.4375c-27.04431,0 -50.27775,19.44406 -55.35444,45.6875h9.82819c1.86244,0 3.59588,0.9675 4.52306,2.52356c0.88688,1.49156 0.9245,3.29219 0.09675,4.816l-11.34662,20.93563c-1.33031,2.451 -3.96406,3.97481 -6.87194,3.97481c-2.90788,0 -5.54162,-1.52381 -6.87194,-3.9775l-11.34662,-20.93563c-0.82775,-1.52381 -0.79013,-3.32444 0.09675,-4.816c0.92719,-1.55338 2.66062,-2.52088 4.52306,-2.52088h11.90831c5.14925,-29.2615 30.84713,-51.0625 60.81544,-51.0625c34.08288,0 61.8125,27.72962 61.8125,61.8125zM94.0625,147.8125c-2.81113,0 -5.64106,-0.19081 -8.4065,-0.56975l0.72563,-5.32394c2.52625,0.344 5.10894,0.51869 7.68087,0.51869c1.01766,0 2.0291,-0.02707 3.03366,-0.08053c0.23901,1.81399 0.5991,3.59035 1.07186,5.32069c-1.35716,0.08942 -2.72613,0.13484 -4.10552,0.13484zM48.17881,80.48794l-26.41006,0.13437l11.02413,20.339c0.58319,1.08038 1.78988,1.16369 2.14462,1.16369c0.35475,0 1.56144,-0.08331 2.14462,-1.16369z"
              fill="url(#color-12_48336_gr12)"></path>
          </g>
          <g stroke="none">
            <g id="Layer_1">
              <path
                d="M140.86263,137.0625l8.84994,-8.84994c1.05081,-1.05081 1.05081,-2.74931 0,-3.80012c-1.05081,-1.05081 -2.74931,-1.05081 -3.80012,0l-8.84994,8.84994l-8.84994,-8.84994c-1.05081,-1.05081 -2.74931,-1.05081 -3.80012,0c-1.05081,1.05081 -1.05081,2.74931 0,3.80012l8.84994,8.84994l-8.84994,8.84994c-1.05081,1.05081 -1.05081,2.74931 0,3.80012c0.52406,0.52406 1.21206,0.78744 1.90006,0.78744c0.688,0 1.376,-0.26337 1.90006,-0.78744l8.84994,-8.84994l8.84994,8.84994c0.52406,0.52406 1.21206,0.78744 1.90006,0.78744c0.688,0 1.376,-0.26337 1.90006,-0.78744c1.05081,-1.05081 1.05081,-2.74931 0,-3.80012z"
                fill="url(#color-13_48336_gr13)"></path>
              <path
                d="M137.0625,172c-19.264,0 -34.9375,-15.6735 -34.9375,-34.9375c0,-19.264 15.6735,-34.9375 34.9375,-34.9375c19.264,0 34.9375,15.6735 34.9375,34.9375c0,19.264 -15.6735,34.9375 -34.9375,34.9375zM137.0625,107.5c-16.29969,0 -29.5625,13.26281 -29.5625,29.5625c0,16.29969 13.26281,29.5625 29.5625,29.5625c16.29969,0 29.5625,-13.26281 29.5625,-29.5625c0,-16.29969 -13.26281,-29.5625 -29.5625,-29.5625z"
                fill="url(#color-14_48336_gr14)"></path>
            </g>
            <g id="Layer_1" fill="#000000" opacity="0">
              <path
                d="M137.0625,96.75c-22.22831,0 -40.3125,18.08419 -40.3125,40.3125c0,22.22831 18.08419,40.3125 40.3125,40.3125c22.22831,0 40.3125,-18.08419 40.3125,-40.3125c0,-22.22831 -18.08419,-40.3125 -40.3125,-40.3125z">
              </path>
            </g>
          </g>
          <path d="M102.125,172v-69.875h69.875v69.875z" id="overlay-drag" fill="#ff0000" stroke="none" opacity="0">
          </path>
        </g>
      </svg>
