<svg id="Capa_1" enable-background="new 0 0 512 512" height="512" viewBox="0 0 512 512" width="512" xmlns="http://www.w3.org/2000/svg"><g><g><path d="m255.7 195.85 30 56.926-30 201.373-122.35-201.299 3.85-57 72.325-30z" fill="#f3f5f9"/><path d="m255.7 454.149-255.7-258.299 66.401-30 70.799 30z" fill="#e1e6f0"/><path d="m374.201 195.85 3.884 56.926-122.385 201.373v-258.299l61.193-30z" fill="#e1e6f0"/><path d="m512 195.85-256.3 258.299 118.501-258.299 69.899-30z" fill="#cfd7e6"/><g id="Diamond_13_"><g><path d="m195.7 57.851.75 68.999-59.25 69-66.804-71.738-3.995-66.261z" fill="#e1e6f0"/><path d="m315.7 57.851v68.999l-60 69-60-69v-68.999z" fill="#f3f5f9"/><path d="m445 57.851-9.928 77.827-60.871 60.172-55.508-60.171-2.993-77.828z" fill="#e1e6f0"/><path d="m512 195.85h-137.799l70.799-137.999z" fill="#f3f5f9"/></g></g><path d="m137.2 195.85h-137.2l66.401-137.999z" fill="#f3f5f9"/></g><path d="m255.7 195.85 60-69v-68.999h-60z" fill="#e1e6f0"/><g fill="#cfd7e6"><path d="m374.201 195.85h-118.501l60-137.999z"/><path d="m255.7 195.85h-118.5l58.5-137.999z"/></g></g></svg>