<svg id="Capa_1" enable-background="new 0 0 512 512" height="512" viewBox="0 0 512 512" width="512" xmlns="http://www.w3.org/2000/svg"><g><path d="m401.8 129.6 14.982 158.011-160.482 93.389h-.3v-.3l-151.848-79.067 6.049-172.033 145.799-84.6z" fill="#f3f5f9"/><path d="m256 381h.3l160.481-93.389-14.981-158.011-145.8-84.6v335.7z" fill="#e1e6f0"/><g><g id="Trillion_3_"><path d="m401.8 129.6c-32.699-11.7-82.8-24.6-145.8-24.6s-112.8 12.9-145.8 24.6l54.15-74.8 91.65-54.8 95.274 58.021z" fill="#e1e6f0"/></g><path d="m256 380.7v.3l-127.501-10.842-56.999-48.259-10.987-94.473 49.688-97.826c18.9 118.799 94.799 205.199 145.799 251.1z" fill="#cfd7e6"/><path d="m440.799 321.899-61.5 49.7-122.999 9.401c51-45.601 126.899-131.4 145.499-251.4l51.611 76.56z" fill="#cfd7e6"/><path d="m440.799 321.899c-71.999 119.4-172.5 182.601-176.999 185.002l-7.8 5.099-30-58.235 30-72.765h.3z" fill="#e1e6f0"/><path d="m512 66.899v8.101c0 86.1-24.699 169.2-71.2 246.899l-39-192.299 54.6-61.35z" fill="#e1e6f0"/><g id="Trillion_4_"><g><path d="m110.201 129.6-38.702 192.299c-46.799-77.699-71.499-160.799-71.499-246.899v-8.101l55.6 1.35z" fill="#e1e6f0"/><path d="m256 381v131l-7.8-5.099c-4.499-2.401-104.7-65.301-176.7-185.001z" fill="#f3f5f9"/></g></g><path d="m256 0-145.8 129.6-110.2-62.701 6.599-4.501c3.9-2.398 96.7-62.398 249.401-62.398z" fill="#f3f5f9"/></g><path d="m401.8 129.6-50.526-71.58-95.274-58.02v105c62.999 0 113.101 12.9 145.8 24.6z" fill="#cfd7e6"/><path d="m512 66.899-110.2 62.701-145.8-129.6c152.701 0 245.5 60 249.401 62.399z" fill="#f3f5f9"/></g></svg>