<svg id="Capa_1" enable-background="new 0 0 512 512" height="512" viewBox="0 0 512 512" width="512" xmlns="http://www.w3.org/2000/svg"><g><path d="m122.578 437-47.578-47.578v-266.844l47.578-47.578h266.844l47.578 47.578v266.844l-47.578 47.578z" fill="#73e7ff"/><path d="m256 75v362h133.422l47.578-47.578v-266.844l-47.578-47.578z" fill="#6cf"/><g><g id="Emerald_2_"><g><path d="m105 135v242l-52.5 48.149-52.5-11.85v-314.6l52.5-11.849z" fill="#59abff"/><path d="m413.301 512h-314.602l-11.849-52.5 48.15-52.5h242l48.15 52.5z" fill="#6cf"/><path d="m512 98.699v314.6l-52.5 11.85-52.5-48.149v-242l52.5-48.15z" fill="#59abff"/><path d="m413.301 0 11.849 82.5-48.15 22.5h-242l-48.15-22.5 11.849-82.5z" fill="#6cf"/></g></g><g fill="#4d87ff"><path d="m135 105-30 30-105-36.301 98.699-98.699z"/><path d="m135 407-36.301 105-98.699-98.701 105-36.299z"/></g></g><path d="m256 407v105h157.301l11.85-52.5-48.151-52.5z" fill="#59abff"/><path d="m256 0v105h121l48.151-22.5-11.85-82.5z" fill="#59abff"/><g fill="#4d87ff"><path d="m512 98.699-105 36.301-30-30 36.301-105z"/><path d="m512 413.299-98.699 98.701-36.301-105 30-30z"/></g></g></svg>